<svg width="44" height="44" viewBox="0 0 44 44" fill="none" xmlns="http://www.w3.org/2000/svg">
<rect width="44" height="44" rx="8" fill="#FBFAFB"/>
<rect x="10" y="10" width="24" height="24" rx="12" fill="#746EF9"/>
<path d="M22.0264 34H21.9736C15.3714 34 10 28.6286 10 22.0264V21.9736C10 15.3714 15.3714 10 21.9736 10H22.0264C28.6286 10 34 15.3714 34 21.9736V22.0264C34 28.6286 28.6286 34 22.0264 34ZM21.9736 10.8124C15.819 10.8124 10.8124 15.819 10.8124 21.9736V22.0264C10.8124 28.181 15.819 33.1876 21.9736 33.1876H22.0264C28.181 33.1876 33.1876 28.181 33.1876 22.0264V21.9736C33.1876 15.819 28.181 10.8124 22.0264 10.8124H21.9736Z" fill="#746EF9"/>
<path d="M15.2975 21.4863C15.33 21.4701 15.3625 21.4547 15.3942 21.44C15.945 21.185 16.5031 20.9461 17.0604 20.7073C17.0905 20.7073 17.1408 20.6723 17.1692 20.661C17.2123 20.6423 17.2554 20.6244 17.2984 20.6057C17.3813 20.57 17.4642 20.5351 17.5462 20.4993C17.7119 20.4286 17.8768 20.358 18.0426 20.2873C18.3732 20.1459 18.7038 20.0046 19.0345 19.8624C19.6957 19.5797 20.3578 19.2962 21.0191 19.0135C21.6804 18.7308 22.3425 18.4473 23.0037 18.1645C23.665 17.8818 24.3271 17.5983 24.9884 17.3156C25.6496 17.0329 26.3117 16.7494 26.973 16.4667C27.12 16.4033 27.2793 16.3091 27.4369 16.2815C27.5693 16.2579 27.6984 16.2124 27.8317 16.1872C28.0843 16.1393 28.363 16.1198 28.6051 16.2246C28.6887 16.2611 28.7659 16.3123 28.8301 16.3765C29.1372 16.6803 29.0941 17.1791 29.0291 17.6064C28.5766 20.5846 28.1241 23.5636 27.6708 26.5418C27.6091 26.9504 27.5246 27.3988 27.2021 27.6572C26.9291 27.8757 26.5408 27.9 26.2037 27.8074C25.8665 27.714 25.5692 27.5182 25.2776 27.3257C24.0679 26.5247 22.8575 25.7237 21.6479 24.9227C21.3603 24.7326 21.0402 24.484 21.0435 24.1388C21.0451 23.9308 21.1694 23.7456 21.2961 23.5807C22.3473 22.2094 23.864 21.267 24.9924 19.9591C25.1517 19.7747 25.2768 19.4416 25.0582 19.3352C24.9283 19.2718 24.7788 19.3579 24.6602 19.44C23.1686 20.4758 21.6779 21.5123 20.1864 22.5481C19.6998 22.8861 19.1896 23.2338 18.6031 23.3166C18.0783 23.3914 17.5503 23.2451 17.0425 23.0957C16.6168 22.9706 16.192 22.8422 15.7687 22.7098C15.5437 22.6399 15.3113 22.5644 15.1375 22.406C14.9636 22.2475 14.8637 21.9811 14.9685 21.7699C15.0343 21.6374 15.1619 21.5538 15.2959 21.4855L15.2975 21.4863Z" fill="#FBFAFB"/>
</svg>
