<svg width="778" height="789" viewBox="0 0 778 789" fill="none" xmlns="http://www.w3.org/2000/svg">
<g filter="url(#filter0_f_31_74)">
<path d="M401.694 303.332C393.649 298.889 383.886 298.889 375.841 303.332L313.813 337.587C305.291 342.294 300 351.259 300 360.994V427.48C300 437.215 305.291 446.181 313.813 450.887L375.841 485.142C383.886 489.585 393.649 489.585 401.694 485.142L463.723 450.887C472.244 446.181 477.535 437.215 477.535 427.48V360.994C477.535 351.259 472.244 342.294 463.723 337.587L401.694 303.332Z" fill="url(#paint0_linear_31_74)"/>
<path d="M401.694 303.332C393.649 298.889 383.886 298.889 375.841 303.332L313.813 337.587C305.291 342.294 300 351.259 300 360.994V427.48C300 437.215 305.291 446.181 313.813 450.887L375.841 485.142C383.886 489.585 393.649 489.585 401.694 485.142L463.723 450.887C472.244 446.181 477.535 437.215 477.535 427.48V360.994C477.535 351.259 472.244 342.294 463.723 337.587L401.694 303.332Z" fill="white" fill-opacity="0.15"/>
</g>
<path d="M401.694 303.332C393.649 298.889 383.886 298.889 375.841 303.332L313.813 337.587C305.291 342.294 300 351.259 300 360.994V427.48C300 437.215 305.291 446.181 313.813 450.887L375.841 485.142C383.886 489.585 393.649 489.585 401.694 485.142L463.723 450.887C472.244 446.181 477.535 437.215 477.535 427.48V360.994C477.535 351.259 472.244 342.294 463.723 337.587L401.694 303.332Z" fill="url(#paint1_linear_31_74)"/>
<path d="M401.694 303.332C393.649 298.889 383.886 298.889 375.841 303.332L313.813 337.587C305.291 342.294 300 351.259 300 360.994V427.48C300 437.215 305.291 446.181 313.813 450.887L375.841 485.142C383.886 489.585 393.649 489.585 401.694 485.142L463.723 450.887C472.244 446.181 477.535 437.215 477.535 427.48V360.994C477.535 351.259 472.244 342.294 463.723 337.587L401.694 303.332Z" fill="white" fill-opacity="0.16"/>
<path d="M414.867 379.794C414.867 385.096 403.406 389.394 389.267 389.394C375.129 389.394 363.667 385.096 363.667 379.794M414.867 379.794C414.867 374.492 403.406 370.194 389.267 370.194C375.129 370.194 363.667 374.492 363.667 379.794M414.867 379.794V408.594C414.867 413.896 403.406 418.194 389.267 418.194C375.129 418.194 363.667 413.896 363.667 408.594V379.794M414.867 394.194C414.867 399.496 403.406 403.794 389.267 403.794C375.129 403.794 363.667 399.496 363.667 394.194" stroke="#FBFAFB" stroke-width="5.33333"/>
<circle cx="257.268" cy="314.194" r="20" transform="rotate(-7.01838 257.268 314.194)" fill="#FBFAFB"/>
<path d="M251.597 313.716C251.327 311.529 251.193 310.435 251.789 309.672C252.384 308.909 253.478 308.774 255.665 308.505L257.985 308.22C260.173 307.95 261.266 307.816 262.029 308.412C262.793 309.007 262.927 310.101 263.196 312.288L263.482 314.608C263.751 316.796 263.886 317.889 263.29 318.652C262.694 319.416 261.601 319.55 259.413 319.819L257.093 320.105C254.906 320.374 253.812 320.509 253.049 319.913C252.286 319.317 252.152 318.224 251.882 316.036L251.597 313.716Z" stroke="#B3B1F2" stroke-width="1.54688"/>
<rect x="254.936" y="312.131" width="4.67498" height="4.67498" rx="1.2375" transform="rotate(-7.01838 254.936 312.131)" fill="#B3B1F2" stroke="#B3B1F2" stroke-width="0.61875"/>
<path d="M254.505 308.65L254.076 305.17" stroke="#B3B1F2" stroke-width="1.54688" stroke-linecap="round"/>
<path d="M259.145 308.08L258.717 304.6" stroke="#B3B1F2" stroke-width="1.54688" stroke-linecap="round"/>
<path d="M263.053 311.13L266.533 310.701" stroke="#B3B1F2" stroke-width="1.54688" stroke-linecap="round"/>
<path d="M263.624 315.77L267.104 315.342" stroke="#B3B1F2" stroke-width="1.54688" stroke-linecap="round"/>
<path d="M256.364 323.728L255.936 320.248" stroke="#B3B1F2" stroke-width="1.54688" stroke-linecap="round"/>
<path d="M261.005 323.158L260.576 319.678" stroke="#B3B1F2" stroke-width="1.54688" stroke-linecap="round"/>
<path d="M247.975 312.989L251.455 312.561" stroke="#B3B1F2" stroke-width="1.54688" stroke-linecap="round"/>
<path d="M248.545 317.638L252.025 317.209" stroke="#B3B1F2" stroke-width="1.54688" stroke-linecap="round"/>
<circle cx="303.268" cy="512.194" r="20" fill="#746EF9"/>
<path d="M299.509 519.905L298.964 515.296C298.897 514.731 299.301 514.218 299.867 514.151L307.035 513.303C307.601 513.236 308.114 513.64 308.181 514.206L308.786 519.327M307.03 504.477L307.272 506.525C307.339 507.091 306.935 507.604 306.369 507.67L299.2 508.518C298.635 508.585 298.122 508.181 298.055 507.615L297.692 504.543M310.403 506.672L306.972 503.967C306.604 503.677 306.135 503.544 305.67 503.599L295.863 504.759C294.893 504.874 294.2 505.753 294.315 506.723L295.838 519.597C295.953 520.567 296.831 521.26 297.801 521.145L310.676 519.622C311.645 519.508 312.338 518.629 312.224 517.659L311.064 507.853C311.009 507.387 310.771 506.962 310.403 506.672Z" stroke="#FBFAFB" stroke-width="1.54688" stroke-linecap="round"/>
<circle cx="521.268" cy="288.194" r="20" fill="#746EF9"/>
<path d="M525.316 292.985L519.935 291.85M515.613 291.022L515.63 290.941M512.09 289.07L515.802 280.419C516.215 279.455 517.252 278.917 518.278 279.134L527.19 281.014C528.187 281.224 528.909 282.091 528.935 283.11L529.197 293.241M525.687 288.566L517.076 286.75C514.698 286.248 512.364 287.769 511.863 290.147C511.361 292.524 512.882 294.858 515.26 295.36L523.87 297.177C526.248 297.678 528.582 296.157 529.084 293.78C529.585 291.402 528.065 289.068 525.687 288.566Z" stroke="#FBFAFB" stroke-width="1.54688" stroke-linecap="round" stroke-linejoin="round"/>
<circle cx="343.268" cy="244.194" r="14" fill="#FBFAFB"/>
<circle cx="343.257" cy="244.186" r="5.99287" transform="rotate(-7.5686 343.257 244.186)" stroke="#B3B1F2" stroke-width="1.26668"/>
<ellipse cx="343.257" cy="244.186" rx="2.24733" ry="5.99287" transform="rotate(-7.5686 343.257 244.186)" stroke="#B3B1F2" stroke-width="1.26668"/>
<path d="M337.316 244.976L349.198 243.397" stroke="#B3B1F2" stroke-width="1.26668" stroke-linecap="round"/>
<circle cx="488.268" cy="492.194" r="20" fill="#FBFAFB"/>
<path d="M486.227 491.088L487.573 492.994L491.385 490.3M482.729 485.464L488.213 483.807C489.207 483.507 490.285 483.692 491.122 484.307L495.738 487.7C495.738 487.7 494.922 492.449 494.491 494.953C494.061 497.457 491.456 498.75 486.811 500.676C483.076 497.31 481.145 494.679 481.482 492.717L482.729 485.464Z" stroke="#B3B1F2" stroke-width="1.55" stroke-linecap="round" stroke-linejoin="round"/>
<circle cx="246.268" cy="426.194" r="14" fill="#FBFAFB"/>
<path d="M249.765 427.043L242.769 425.34M249.765 427.043C251.697 427.513 253.644 426.328 254.114 424.396C254.584 422.465 253.399 420.517 251.467 420.047L244.472 418.344C242.54 417.874 240.592 419.059 240.122 420.991C239.652 422.923 240.837 424.87 242.769 425.34M249.765 427.043C251.697 427.513 252.881 429.46 252.411 431.392C251.941 433.324 249.994 434.509 248.062 434.039L241.066 432.336C239.134 431.866 237.95 429.919 238.42 427.987C238.89 426.055 240.837 424.87 242.769 425.34M251.053 423.651L246.681 422.587M249.35 430.647L244.978 429.583M241.464 428.797L241.48 428.732M243.183 421.736L243.199 421.67" stroke="#B3B1F2" stroke-width="1.5" stroke-linecap="round" stroke-linejoin="round"/>
<defs>
<filter id="filter0_f_31_74" x="0" y="0" width="777.535" height="788.474" filterUnits="userSpaceOnUse" color-interpolation-filters="sRGB">
<feFlood flood-opacity="0" result="BackgroundImageFix"/>
<feBlend mode="normal" in="SourceGraphic" in2="BackgroundImageFix" result="shape"/>
<feGaussianBlur stdDeviation="150" result="effect1_foregroundBlur_31_74"/>
</filter>
<linearGradient id="paint0_linear_31_74" x1="388.768" y1="296.194" x2="388.768" y2="492.281" gradientUnits="userSpaceOnUse">
<stop stop-color="#645DF8"/>
<stop offset="1" stop-color="#B3B1F2"/>
</linearGradient>
<linearGradient id="paint1_linear_31_74" x1="388.768" y1="296.194" x2="388.768" y2="492.281" gradientUnits="userSpaceOnUse">
<stop stop-color="#645DF8"/>
<stop offset="1" stop-color="#B3B1F2" stop-opacity="0.4"/>
</linearGradient>
</defs>
</svg>
