<svg width="997" height="820" viewBox="0 0 997 820" fill="none" xmlns="http://www.w3.org/2000/svg">
<g filter="url(#filter0_f_31_126)">
<path d="M505.526 300.989C500.812 299.67 495.827 299.67 491.114 300.989L319.533 349.006C307.984 352.238 300 362.764 300 374.756V445.189C300 457.182 307.984 467.707 319.533 470.939L491.114 518.956C495.827 520.275 500.812 520.275 505.526 518.956L677.107 470.939C688.655 467.707 696.64 457.182 696.64 445.189V374.756C696.64 362.764 688.655 352.238 677.107 349.006L505.526 300.989Z" fill="#DBDAFE"/>
</g>
<rect x="234.32" y="298.973" width="238.987" height="107.855" rx="17.0705" fill="#FBFAFB"/>
<path d="M245.32 394.973L249.32 394.973" stroke="#646464" stroke-opacity="0.3" stroke-width="1.55187" stroke-linecap="round"/>
<path d="M245.32 373.973L249.32 373.973" stroke="#646464" stroke-opacity="0.3" stroke-width="1.55187" stroke-linecap="round"/>
<path d="M245.32 352.973L249.32 352.973" stroke="#646464" stroke-opacity="0.3" stroke-width="1.55187" stroke-linecap="round"/>
<path d="M245.32 331.973L249.32 331.973" stroke="#646464" stroke-opacity="0.3" stroke-width="1.55187" stroke-linecap="round"/>
<path d="M245.32 310.973L249.32 310.973" stroke="#646464" stroke-opacity="0.3" stroke-width="1.55187" stroke-linecap="round"/>
<path d="M423.156 311.677C423.156 310.473 424.132 309.496 425.337 309.496C426.541 309.496 427.518 310.473 427.518 311.677L427.518 394.12C427.518 395.325 426.541 396.301 425.337 396.301C424.132 396.301 423.156 395.325 423.156 394.12L423.156 311.677Z" fill="#DBDAFE" fill-opacity="0.33"/>
<path d="M423.007 325.355C423.007 324.07 424.05 323.027 425.335 323.027C426.621 323.027 427.663 324.07 427.663 325.355L427.663 394.413C427.663 395.699 426.621 396.741 425.335 396.741C424.05 396.741 423.007 395.699 423.007 394.413L423.007 325.355Z" fill="url(#paint0_linear_31_126)"/>
<path d="M423.007 325.355C423.007 324.07 424.05 323.027 425.335 323.027C426.621 323.027 427.663 324.07 427.663 325.355L427.663 394.413C427.663 395.699 426.621 396.741 425.335 396.741C424.05 396.741 423.007 395.699 423.007 394.413L423.007 325.355Z" fill="white" fill-opacity="0.15"/>
<path d="M440.859 311.677C440.859 310.473 441.835 309.496 443.04 309.496C444.244 309.496 445.221 310.473 445.221 311.677L445.221 394.12C445.221 395.325 444.244 396.301 443.04 396.301C441.835 396.301 440.859 395.325 440.859 394.12L440.859 311.677Z" fill="#DBDAFE" fill-opacity="0.33"/>
<path d="M440.718 353.285C440.718 351.999 441.76 350.957 443.046 350.957C444.332 350.957 445.374 351.999 445.374 353.285L445.374 394.409C445.374 395.695 444.332 396.737 443.046 396.737C441.76 396.737 440.718 395.695 440.718 394.409L440.718 353.285Z" fill="url(#paint1_linear_31_126)"/>
<path d="M440.718 353.285C440.718 351.999 441.76 350.957 443.046 350.957C444.332 350.957 445.374 351.999 445.374 353.285L445.374 394.409C445.374 395.695 444.332 396.737 443.046 396.737C441.76 396.737 440.718 395.695 440.718 394.409L440.718 353.285Z" fill="white" fill-opacity="0.15"/>
<path d="M387.957 311.677C387.957 310.473 388.933 309.496 390.138 309.496C391.342 309.496 392.319 310.473 392.319 311.677L392.319 394.12C392.319 395.325 391.342 396.301 390.138 396.301C388.933 396.301 387.957 395.325 387.957 394.12L387.957 311.677Z" fill="#DBDAFE" fill-opacity="0.33"/>
<path d="M387.808 343.972C387.808 342.687 388.85 341.645 390.136 341.645C391.422 341.645 392.464 342.687 392.464 343.972L392.464 394.408C392.464 395.694 391.422 396.736 390.136 396.736C388.85 396.736 387.808 395.694 387.808 394.408L387.808 343.972Z" fill="url(#paint2_linear_31_126)"/>
<path d="M387.808 343.972C387.808 342.687 388.85 341.645 390.136 341.645C391.422 341.645 392.464 342.687 392.464 343.972L392.464 394.408C392.464 395.694 391.422 396.736 390.136 396.736C388.85 396.736 387.808 395.694 387.808 394.408L387.808 343.972Z" fill="white" fill-opacity="0.15"/>
<path d="M370.113 311.677C370.113 310.473 371.089 309.496 372.294 309.496C373.498 309.496 374.475 310.473 374.475 311.677L374.475 394.12C374.475 395.325 373.498 396.301 372.294 396.301C371.089 396.301 370.113 395.325 370.113 394.12L370.113 311.677Z" fill="#DBDAFE" fill-opacity="0.33"/>
<path d="M369.964 360.269C369.964 358.984 371.007 357.941 372.292 357.941C373.578 357.941 374.62 358.984 374.62 360.269L374.62 394.41C374.62 395.696 373.578 396.738 372.292 396.738C371.007 396.738 369.964 395.696 369.964 394.41L369.964 360.269Z" fill="url(#paint3_linear_31_126)"/>
<path d="M369.964 360.269C369.964 358.984 371.007 357.941 372.292 357.941C373.578 357.941 374.62 358.984 374.62 360.269L374.62 394.41C374.62 395.696 373.578 396.738 372.292 396.738C371.007 396.738 369.964 395.696 369.964 394.41L369.964 360.269Z" fill="white" fill-opacity="0.15"/>
<path d="M352.261 311.677C352.261 310.473 353.238 309.496 354.442 309.496C355.647 309.496 356.623 310.473 356.623 311.677L356.623 394.12C356.623 395.325 355.647 396.301 354.442 396.301C353.238 396.301 352.261 395.325 352.261 394.12L352.261 311.677Z" fill="#DBDAFE" fill-opacity="0.33"/>
<path d="M352.113 339.324C352.113 338.038 353.155 336.996 354.441 336.996C355.726 336.996 356.768 338.038 356.768 339.324L356.768 394.415C356.768 395.701 355.726 396.743 354.441 396.743C353.155 396.743 352.113 395.701 352.113 394.415L352.113 339.324Z" fill="url(#paint4_linear_31_126)"/>
<path d="M352.113 339.324C352.113 338.038 353.155 336.996 354.441 336.996C355.726 336.996 356.768 338.038 356.768 339.324L356.768 394.415C356.768 395.701 355.726 396.743 354.441 396.743C353.155 396.743 352.113 395.701 352.113 394.415L352.113 339.324Z" fill="white" fill-opacity="0.15"/>
<path d="M334.414 311.677C334.414 310.473 335.39 309.496 336.595 309.496C337.799 309.496 338.776 310.473 338.776 311.677L338.776 394.12C338.776 395.325 337.799 396.301 336.595 396.301C335.39 396.301 334.414 395.325 334.414 394.12L334.414 311.677Z" fill="#DBDAFE" fill-opacity="0.33"/>
<path d="M334.273 388.207C334.273 386.921 335.315 385.879 336.601 385.879C337.886 385.879 338.929 386.921 338.929 388.207L338.929 394.414C338.929 395.7 337.886 396.742 336.601 396.742C335.315 396.742 334.273 395.7 334.273 394.414L334.273 388.207Z" fill="url(#paint5_linear_31_126)"/>
<path d="M334.273 388.207C334.273 386.921 335.315 385.879 336.601 385.879C337.886 385.879 338.929 386.921 338.929 388.207L338.929 394.414C338.929 395.7 337.886 396.742 336.601 396.742C335.315 396.742 334.273 395.7 334.273 394.414L334.273 388.207Z" fill="white" fill-opacity="0.15"/>
<path d="M316.57 311.677C316.57 310.473 317.546 309.496 318.751 309.496C319.955 309.496 320.932 310.473 320.932 311.677L320.932 394.12C320.932 395.325 319.955 396.301 318.751 396.301C317.546 396.301 316.57 395.325 316.57 394.12L316.57 311.677Z" fill="#DBDAFE" fill-opacity="0.33"/>
<path d="M316.421 315.254C316.421 313.968 317.464 312.926 318.749 312.926C320.035 312.926 321.077 313.968 321.077 315.254L321.077 394.399C321.077 395.684 320.035 396.727 318.749 396.727C317.464 396.727 316.421 395.684 316.421 394.399L316.421 315.254Z" fill="url(#paint6_linear_31_126)"/>
<path d="M316.421 315.254C316.421 313.968 317.464 312.926 318.749 312.926C320.035 312.926 321.077 313.968 321.077 315.254L321.077 394.399C321.077 395.684 320.035 396.727 318.749 396.727C317.464 396.727 316.421 395.684 316.421 394.399L316.421 315.254Z" fill="white" fill-opacity="0.15"/>
<path d="M298.718 311.677C298.718 310.473 299.695 309.496 300.899 309.496C302.104 309.496 303.08 310.473 303.08 311.677L303.08 394.12C303.08 395.325 302.104 396.301 300.899 396.301C299.695 396.301 298.718 395.325 298.718 394.12L298.718 311.677Z" fill="#DBDAFE" fill-opacity="0.33"/>
<path d="M298.718 354.066C298.718 352.78 299.76 351.738 301.046 351.738C302.332 351.738 303.374 352.78 303.374 354.066L303.374 394.415C303.374 395.7 302.332 396.742 301.046 396.742C299.76 396.742 298.718 395.7 298.718 394.415L298.718 354.066Z" fill="url(#paint7_linear_31_126)"/>
<path d="M298.718 354.066C298.718 352.78 299.76 351.738 301.046 351.738C302.332 351.738 303.374 352.78 303.374 354.066L303.374 394.415C303.374 395.7 302.332 396.742 301.046 396.742C299.76 396.742 298.718 395.7 298.718 394.415L298.718 354.066Z" fill="white" fill-opacity="0.15"/>
<path d="M280.875 311.677C280.875 310.473 281.851 309.496 283.056 309.496C284.26 309.496 285.237 310.473 285.237 311.677L285.237 394.12C285.237 395.325 284.26 396.301 283.056 396.301C281.851 396.301 280.875 395.325 280.875 394.12L280.875 311.677Z" fill="#DBDAFE" fill-opacity="0.33"/>
<path d="M280.875 319.529C280.875 318.324 281.851 317.348 283.056 317.348C284.26 317.348 285.237 318.324 285.237 319.529L285.237 394.556C285.237 395.761 284.26 396.738 283.056 396.738C281.851 396.738 280.875 395.761 280.875 394.556L280.875 319.529Z" fill="url(#paint8_linear_31_126)"/>
<path d="M280.875 319.529C280.875 318.324 281.851 317.348 283.056 317.348C284.26 317.348 285.237 318.324 285.237 319.529L285.237 394.556C285.237 395.761 284.26 396.738 283.056 396.738C281.851 396.738 280.875 395.761 280.875 394.556L280.875 319.529Z" fill="white" fill-opacity="0.15"/>
<path d="M263.027 311.677C263.027 310.473 264.003 309.496 265.208 309.496C266.412 309.496 267.389 310.473 267.389 311.677L267.389 394.12C267.389 395.325 266.412 396.301 265.208 396.301C264.003 396.301 263.027 395.325 263.027 394.12L263.027 311.677Z" fill="#DBDAFE" fill-opacity="0.33"/>
<path d="M262.878 343.972C262.878 342.687 263.921 341.645 265.206 341.645C266.492 341.645 267.534 342.687 267.534 343.972L267.534 394.408C267.534 395.694 266.492 396.736 265.206 396.736C263.921 396.736 262.878 395.694 262.878 394.408L262.878 343.972Z" fill="url(#paint9_linear_31_126)"/>
<path d="M262.878 343.972C262.878 342.687 263.921 341.645 265.206 341.645C266.492 341.645 267.534 342.687 267.534 343.972L267.534 394.408C267.534 395.694 266.492 396.736 265.206 396.736C263.921 396.736 262.878 395.694 262.878 394.408L262.878 343.972Z" fill="white" fill-opacity="0.15"/>
<path d="M405.804 311.677C405.804 310.473 406.781 309.496 407.985 309.496C409.19 309.496 410.166 310.473 410.166 311.677L410.166 394.12C410.166 395.325 409.19 396.301 407.985 396.301C406.781 396.301 405.804 395.325 405.804 394.12L405.804 311.677Z" fill="#DBDAFE" fill-opacity="0.33"/>
<path d="M405.804 319.529C405.804 318.324 406.781 317.348 407.985 317.348C409.19 317.348 410.166 318.324 410.166 319.529L410.166 394.556C410.166 395.761 409.19 396.738 407.985 396.738C406.781 396.738 405.804 395.761 405.804 394.556L405.804 319.529Z" fill="url(#paint10_linear_31_126)"/>
<path d="M405.804 319.529C405.804 318.324 406.781 317.348 407.985 317.348C409.19 317.348 410.166 318.324 410.166 319.529L410.166 394.556C410.166 395.761 409.19 396.738 407.985 396.738C406.781 396.738 405.804 395.761 405.804 394.556L405.804 319.529Z" fill="white" fill-opacity="0.15"/>
<path d="M458.921 311.677C458.921 310.473 459.898 309.496 461.102 309.496C462.307 309.496 463.283 310.473 463.283 311.677L463.283 394.557C463.283 395.761 462.307 396.738 461.102 396.738C459.898 396.738 458.921 395.761 458.921 394.557L458.921 311.677Z" fill="url(#paint11_linear_31_126)"/>
<path d="M458.921 311.677C458.921 310.473 459.898 309.496 461.102 309.496C462.307 309.496 463.283 310.473 463.283 311.677L463.283 394.557C463.283 395.761 462.307 396.738 461.102 396.738C459.898 396.738 458.921 395.761 458.921 394.557L458.921 311.677Z" fill="white" fill-opacity="0.15"/>
<mask id="mask0_31_126" style="mask-type:alpha" maskUnits="userSpaceOnUse" x="479" y="298" width="240" height="223">
<rect x="479.515" y="298.973" width="238.987" height="221.917" fill="#E9E8ED"/>
</mask>
<g mask="url(#mask0_31_126)">
<rect x="479.515" y="298.973" width="238.987" height="221.917" rx="17.0705" fill="#FBFAFB"/>
<path d="M512.451 366.037C509.643 366.037 507.162 365.554 505.007 364.587C502.865 363.621 501.186 362.288 499.972 360.59C498.757 358.893 498.156 356.96 498.169 354.791C498.156 353.094 498.502 351.533 499.208 350.109C499.926 348.673 500.899 347.477 502.127 346.524C503.354 345.558 504.726 344.944 506.241 344.682V344.447C504.243 343.964 502.643 342.893 501.441 341.234C500.239 339.576 499.645 337.669 499.658 335.514C499.645 333.463 500.187 331.635 501.284 330.028C502.394 328.409 503.916 327.135 505.849 326.208C507.782 325.281 509.983 324.817 512.451 324.817C514.894 324.817 517.075 325.287 518.995 326.228C520.928 327.155 522.449 328.428 523.559 330.048C524.67 331.654 525.231 333.476 525.244 335.514C525.231 337.669 524.617 339.576 523.403 341.234C522.188 342.893 520.608 343.964 518.662 344.447V344.682C520.164 344.944 521.515 345.558 522.717 346.524C523.932 347.477 524.898 348.673 525.617 350.109C526.348 351.533 526.72 353.094 526.733 354.791C526.72 356.96 526.106 358.893 524.892 360.59C523.677 362.288 521.992 363.621 519.837 364.587C517.695 365.554 515.233 366.037 512.451 366.037ZM512.451 361.08C514.11 361.08 515.547 360.806 516.761 360.257C517.976 359.696 518.916 358.919 519.582 357.926C520.249 356.92 520.588 355.745 520.601 354.4C520.588 353.002 520.222 351.768 519.504 350.697C518.799 349.626 517.839 348.784 516.624 348.17C515.41 347.556 514.019 347.249 512.451 347.249C510.871 347.249 509.467 347.556 508.239 348.17C507.011 348.784 506.045 349.626 505.34 350.697C504.634 351.768 504.288 353.002 504.301 354.4C504.288 355.745 504.608 356.92 505.261 357.926C505.927 358.919 506.874 359.696 508.102 360.257C509.33 360.806 510.779 361.08 512.451 361.08ZM512.451 342.41C513.783 342.41 514.965 342.142 515.997 341.607C517.029 341.071 517.839 340.327 518.427 339.373C519.027 338.42 519.334 337.303 519.347 336.023C519.334 334.769 519.034 333.672 518.446 332.732C517.871 331.791 517.068 331.067 516.036 330.557C515.005 330.035 513.81 329.774 512.451 329.774C511.067 329.774 509.852 330.035 508.807 330.557C507.775 331.067 506.972 331.791 506.398 332.732C505.823 333.672 505.542 334.769 505.555 336.023C505.542 337.303 505.829 338.42 506.417 339.373C507.005 340.327 507.815 341.071 508.846 341.607C509.891 342.142 511.093 342.41 512.451 342.41ZM546.104 366.037C544.315 366.011 542.552 365.684 540.815 365.057C539.091 364.43 537.523 363.385 536.113 361.923C534.702 360.46 533.573 358.494 532.724 356.026C531.888 353.557 531.47 350.475 531.47 346.779C531.47 343.278 531.816 340.17 532.508 337.453C533.213 334.737 534.226 332.444 535.545 330.577C536.864 328.696 538.457 327.266 540.325 326.286C542.193 325.307 544.289 324.817 546.614 324.817C549.004 324.817 551.126 325.287 552.981 326.228C554.836 327.168 556.338 328.467 557.487 330.126C558.649 331.785 559.387 333.672 559.701 335.788H553.725C553.32 334.116 552.517 332.751 551.316 331.693C550.114 330.636 548.547 330.107 546.614 330.107C543.675 330.107 541.383 331.387 539.737 333.946C538.105 336.506 537.282 340.065 537.269 344.624H537.563C538.255 343.487 539.104 342.521 540.11 341.724C541.128 340.914 542.265 340.294 543.518 339.863C544.785 339.419 546.117 339.197 547.515 339.197C549.84 339.197 551.943 339.765 553.823 340.901C555.717 342.025 557.226 343.579 558.349 345.564C559.472 347.549 560.034 349.822 560.034 352.382C560.034 354.942 559.453 357.26 558.29 359.337C557.141 361.413 555.521 363.059 553.432 364.274C551.342 365.475 548.899 366.063 546.104 366.037ZM546.085 360.943C547.626 360.943 549.004 360.564 550.219 359.807C551.433 359.049 552.393 358.031 553.098 356.751C553.804 355.471 554.156 354.04 554.156 352.46C554.156 350.919 553.81 349.515 553.118 348.248C552.439 346.981 551.499 345.975 550.297 345.231C549.108 344.487 547.75 344.114 546.222 344.114C545.06 344.114 543.982 344.336 542.989 344.78C542.01 345.224 541.148 345.838 540.403 346.622C539.659 347.406 539.071 348.307 538.64 349.326C538.222 350.331 538.013 351.396 538.013 352.519C538.013 354.021 538.359 355.412 539.052 356.692C539.757 357.972 540.717 359.004 541.931 359.787C543.159 360.558 544.544 360.943 546.085 360.943ZM586.458 357.965V355.849C586.458 354.334 586.771 352.95 587.398 351.696C588.038 350.429 588.965 349.417 590.18 348.659C591.408 347.889 592.89 347.504 594.627 347.504C596.404 347.504 597.892 347.882 599.094 348.64C600.296 349.397 601.203 350.41 601.817 351.676C602.444 352.943 602.758 354.334 602.758 355.849V357.965C602.758 359.48 602.444 360.871 601.817 362.138C601.19 363.392 600.27 364.404 599.055 365.175C597.853 365.932 596.377 366.311 594.627 366.311C592.864 366.311 591.375 365.932 590.16 365.175C588.946 364.404 588.025 363.392 587.398 362.138C586.771 360.871 586.458 359.48 586.458 357.965ZM591.023 355.849V357.965C591.023 359.088 591.29 360.107 591.826 361.021C592.361 361.936 593.295 362.393 594.627 362.393C595.946 362.393 596.867 361.936 597.39 361.021C597.912 360.107 598.173 359.088 598.173 357.965V355.849C598.173 354.726 597.919 353.707 597.409 352.793C596.913 351.879 595.986 351.422 594.627 351.422C593.321 351.422 592.394 351.879 591.845 352.793C591.297 353.707 591.023 354.726 591.023 355.849ZM566.279 335.004V332.889C566.279 331.373 566.592 329.983 567.219 328.716C567.859 327.449 568.786 326.436 570.001 325.679C571.229 324.921 572.711 324.543 574.448 324.543C576.225 324.543 577.714 324.921 578.915 325.679C580.117 326.436 581.024 327.449 581.638 328.716C582.252 329.983 582.559 331.373 582.559 332.889V335.004C582.559 336.519 582.246 337.91 581.619 339.177C581.005 340.431 580.091 341.443 578.876 342.214C577.674 342.971 576.199 343.35 574.448 343.35C572.672 343.35 571.177 342.971 569.962 342.214C568.76 341.443 567.846 340.431 567.219 339.177C566.592 337.91 566.279 336.519 566.279 335.004ZM570.863 332.889V335.004C570.863 336.128 571.124 337.146 571.647 338.061C572.182 338.975 573.116 339.432 574.448 339.432C575.754 339.432 576.669 338.975 577.191 338.061C577.727 337.146 577.994 336.128 577.994 335.004V332.889C577.994 331.765 577.74 330.747 577.23 329.832C576.721 328.918 575.794 328.461 574.448 328.461C573.142 328.461 572.215 328.918 571.666 329.832C571.131 330.747 570.863 331.765 570.863 332.889ZM568.14 365.488L595.724 325.366H600.407L572.822 365.488H568.14Z" fill="#646464"/>
<path opacity="0.1" fill-rule="evenodd" clip-rule="evenodd" d="M271.562 485.61C271.562 485.61 289.959 482.625 310.875 489.796C350.657 503.433 352.927 478.46 367.678 466.418C381.174 455.401 392.351 462.123 407.378 475.596C418.461 485.532 434.613 502.212 451.34 499.527C466.63 497.072 477.47 477.509 498.664 472.534C515.461 468.591 529.112 479.424 548.455 475.596C574.694 470.403 586.415 439.83 605.168 439.83C628.314 439.83 644.611 413.973 665.667 413.973C686.599 413.973 689.44 429.177 712.337 439.83C729.843 447.974 738.265 439.83 738.265 439.83V527.099H271.562V485.61Z" fill="url(#paint12_linear_31_126)"/>
<path d="M271.562 479.041C271.562 479.041 289.959 476.1 310.875 483.166C350.657 496.606 352.927 471.994 367.678 460.127C381.174 449.269 392.351 455.894 407.378 469.172C418.461 478.964 434.613 495.403 451.34 492.756C466.63 490.337 477.47 471.057 498.664 466.154C515.461 462.268 529.112 472.944 548.455 469.172C574.694 464.054 586.415 433.924 605.168 433.924C628.314 433.924 644.611 408.379 665.667 408.379C686.599 408.379 687.712 423.425 710.609 433.924C728.114 441.95 738.265 433.924 738.265 433.924" stroke="url(#paint13_linear_31_126)" stroke-width="3.10373" stroke-linecap="round" stroke-linejoin="round"/>
<path d="M271.562 479.041C271.562 479.041 289.959 476.1 310.875 483.166C350.657 496.606 352.927 471.994 367.678 460.127C381.174 449.269 392.351 455.894 407.378 469.172C418.461 478.964 434.613 495.403 451.34 492.756C466.63 490.337 477.47 471.057 498.664 466.154C515.461 462.268 529.112 472.944 548.455 469.172C574.694 464.054 586.415 433.924 605.168 433.924C628.314 433.924 644.611 408.379 665.667 408.379C686.599 408.379 687.712 423.425 710.609 433.924C728.114 441.95 738.265 433.924 738.265 433.924" stroke="white" stroke-opacity="0.15" stroke-width="3.10373" stroke-linecap="round" stroke-linejoin="round"/>
</g>
<rect x="234.32" y="413.035" width="238.987" height="107.855" rx="17.0705" fill="#FBFAFB"/>
<path d="M383.763 482.974C380.897 484.472 377.292 483.383 376.227 480.329C374 473.949 373.412 467.077 374.562 460.354C375.712 453.63 378.551 447.345 382.771 442.066C384.79 439.541 388.552 439.711 390.758 442.077C392.963 444.442 392.788 448.14 390.925 450.783C388.509 454.212 386.869 458.154 386.154 462.336C385.439 466.518 385.675 470.782 386.814 474.818C387.693 477.931 386.629 481.476 383.763 482.974Z" fill="#DBDAFE" fill-opacity="0.33"/>
<path d="M383.864 451.066C381.007 449.549 379.867 445.96 381.783 443.355C386.311 437.196 392.533 432.424 399.747 429.66C408.794 426.193 418.79 426.118 427.888 429.448C436.986 432.779 444.572 439.29 449.243 447.778C453.914 456.266 455.354 466.159 453.299 475.627C451.243 485.095 445.83 493.499 438.06 499.286C430.289 505.073 420.687 507.852 411.027 507.11C401.367 506.368 392.301 502.154 385.507 495.248C380.088 489.741 376.406 482.819 374.839 475.337C374.176 472.171 376.702 469.378 379.93 469.183C383.159 468.988 385.899 471.476 386.752 474.595C388.023 479.242 390.466 483.52 393.89 487C398.692 491.882 405.1 494.86 411.928 495.385C418.756 495.909 425.543 493.945 431.035 489.854C436.527 485.764 440.353 479.824 441.806 473.131C443.259 466.439 442.241 459.447 438.939 453.448C435.638 447.448 430.276 442.846 423.846 440.492C417.415 438.138 410.349 438.191 403.955 440.641C399.397 442.388 395.399 445.269 392.316 448.97C390.246 451.454 386.72 452.582 383.864 451.066Z" fill="url(#paint14_linear_31_126)"/>
<path d="M383.864 451.066C381.007 449.549 379.867 445.96 381.783 443.355C386.311 437.196 392.533 432.424 399.747 429.66C408.794 426.193 418.79 426.118 427.888 429.448C436.986 432.779 444.572 439.29 449.243 447.778C453.914 456.266 455.354 466.159 453.299 475.627C451.243 485.095 445.83 493.499 438.06 499.286C430.289 505.073 420.687 507.852 411.027 507.11C401.367 506.368 392.301 502.154 385.507 495.248C380.088 489.741 376.406 482.819 374.839 475.337C374.176 472.171 376.702 469.378 379.93 469.183C383.159 468.988 385.899 471.476 386.752 474.595C388.023 479.242 390.466 483.52 393.89 487C398.692 491.882 405.1 494.86 411.928 495.385C418.756 495.909 425.543 493.945 431.035 489.854C436.527 485.764 440.353 479.824 441.806 473.131C443.259 466.439 442.241 459.447 438.939 453.448C435.638 447.448 430.276 442.846 423.846 440.492C417.415 438.138 410.349 438.191 403.955 440.641C399.397 442.388 395.399 445.269 392.316 448.97C390.246 451.454 386.72 452.582 383.864 451.066Z" fill="white" fill-opacity="0.15"/>
<path d="M314.394 493.884C316.41 496.413 316.026 500.159 313.231 501.786C306.072 505.951 297.752 507.824 289.409 507.062C279.11 506.121 269.572 501.239 262.787 493.435C256.001 485.63 252.492 475.507 252.992 465.177C253.397 456.809 256.407 448.83 261.527 442.319C263.526 439.777 267.29 439.918 269.514 442.265C271.738 444.613 271.593 448.312 269.751 450.97C266.753 455.298 264.996 460.41 264.738 465.745C264.385 473.047 266.865 480.202 271.661 485.719C276.458 491.235 283.199 494.686 290.479 495.35C295.798 495.836 301.105 494.807 305.807 492.439C308.696 490.985 312.379 491.355 314.394 493.884Z" fill="#DBDAFE" fill-opacity="0.33"/>
<path d="M262.821 451.066C259.964 449.549 258.824 445.96 260.74 443.355C263.47 439.642 266.828 436.416 270.676 433.828C276.151 430.148 282.448 427.874 289.011 427.208C295.574 426.543 302.199 427.507 308.301 430.013C314.402 432.52 319.792 436.493 323.991 441.58C328.19 446.667 331.07 452.712 332.376 459.178C333.681 465.644 333.372 472.332 331.475 478.65C329.578 484.968 326.153 490.72 321.502 495.398C318.232 498.687 314.427 501.373 310.265 503.35C307.343 504.737 304.035 502.937 303.088 499.845C302.14 496.753 303.915 493.505 306.747 491.943C309.096 490.648 311.257 489.022 313.162 487.106C316.45 483.8 318.871 479.734 320.211 475.268C321.552 470.803 321.771 466.075 320.848 461.505C319.925 456.935 317.89 452.663 314.922 449.067C311.953 445.471 308.144 442.663 303.832 440.891C299.519 439.119 294.836 438.438 290.197 438.909C285.558 439.379 281.107 440.986 277.238 443.588C274.996 445.095 272.989 446.909 271.273 448.97C269.203 451.455 265.677 452.582 262.821 451.066Z" fill="url(#paint15_linear_31_126)"/>
<path d="M262.821 451.066C259.964 449.549 258.824 445.96 260.74 443.355C263.47 439.642 266.828 436.416 270.676 433.828C276.151 430.148 282.448 427.874 289.011 427.208C295.574 426.543 302.199 427.507 308.301 430.013C314.402 432.52 319.792 436.493 323.991 441.58C328.19 446.667 331.07 452.712 332.376 459.178C333.681 465.644 333.372 472.332 331.475 478.65C329.578 484.968 326.153 490.72 321.502 495.398C318.232 498.687 314.427 501.373 310.265 503.35C307.343 504.737 304.035 502.937 303.088 499.845C302.14 496.753 303.915 493.505 306.747 491.943C309.096 490.648 311.257 489.022 313.162 487.106C316.45 483.8 318.871 479.734 320.211 475.268C321.552 470.803 321.771 466.075 320.848 461.505C319.925 456.935 317.89 452.663 314.922 449.067C311.953 445.471 308.144 442.663 303.832 440.891C299.519 439.119 294.836 438.438 290.197 438.909C285.558 439.379 281.107 440.986 277.238 443.588C274.996 445.095 272.989 446.909 271.273 448.97C269.203 451.455 265.677 452.582 262.821 451.066Z" fill="white" fill-opacity="0.15"/>
<path d="M348.386 444.848H365.069" stroke="#646464" stroke-opacity="0.3" stroke-width="1.55187" stroke-linecap="round"/>
<circle cx="343.727" cy="444.853" r="1.55187" fill="url(#paint16_linear_31_126)"/>
<circle cx="343.727" cy="444.853" r="1.55187" fill="white" fill-opacity="0.15"/>
<path d="M348.386 451.043H365.069" stroke="#646464" stroke-opacity="0.3" stroke-width="1.55187" stroke-linecap="round"/>
<circle cx="343.727" cy="451.064" r="1.55187" fill="url(#paint17_linear_31_126)"/>
<circle cx="343.727" cy="451.064" r="1.55187" fill="white" fill-opacity="0.15"/>
<path d="M348.386 457.262H365.069" stroke="#646464" stroke-opacity="0.3" stroke-width="1.55187" stroke-linecap="round"/>
<circle cx="343.727" cy="457.267" r="1.55187" fill="url(#paint18_linear_31_126)"/>
<circle cx="343.727" cy="457.267" r="1.55187" fill="white" fill-opacity="0.15"/>
<defs>
<filter id="filter0_f_31_126" x="0" y="0" width="996.64" height="819.945" filterUnits="userSpaceOnUse" color-interpolation-filters="sRGB">
<feFlood flood-opacity="0" result="BackgroundImageFix"/>
<feBlend mode="normal" in="SourceGraphic" in2="BackgroundImageFix" result="shape"/>
<feGaussianBlur stdDeviation="150" result="effect1_foregroundBlur_31_126"/>
</filter>
<linearGradient id="paint0_linear_31_126" x1="425.335" y1="323.027" x2="425.335" y2="396.741" gradientUnits="userSpaceOnUse">
<stop stop-color="#645DF8"/>
<stop offset="1" stop-color="#B3B1F2"/>
</linearGradient>
<linearGradient id="paint1_linear_31_126" x1="443.046" y1="350.957" x2="443.046" y2="396.737" gradientUnits="userSpaceOnUse">
<stop stop-color="#645DF8"/>
<stop offset="1" stop-color="#B3B1F2"/>
</linearGradient>
<linearGradient id="paint2_linear_31_126" x1="390.136" y1="341.645" x2="390.136" y2="396.736" gradientUnits="userSpaceOnUse">
<stop stop-color="#645DF8"/>
<stop offset="1" stop-color="#B3B1F2"/>
</linearGradient>
<linearGradient id="paint3_linear_31_126" x1="372.292" y1="357.941" x2="372.292" y2="396.738" gradientUnits="userSpaceOnUse">
<stop stop-color="#645DF8"/>
<stop offset="1" stop-color="#B3B1F2"/>
</linearGradient>
<linearGradient id="paint4_linear_31_126" x1="354.441" y1="336.996" x2="354.441" y2="396.743" gradientUnits="userSpaceOnUse">
<stop stop-color="#645DF8"/>
<stop offset="1" stop-color="#B3B1F2"/>
</linearGradient>
<linearGradient id="paint5_linear_31_126" x1="336.601" y1="385.879" x2="336.601" y2="396.742" gradientUnits="userSpaceOnUse">
<stop stop-color="#645DF8"/>
<stop offset="1" stop-color="#B3B1F2"/>
</linearGradient>
<linearGradient id="paint6_linear_31_126" x1="318.749" y1="312.926" x2="318.749" y2="396.727" gradientUnits="userSpaceOnUse">
<stop stop-color="#645DF8"/>
<stop offset="1" stop-color="#B3B1F2"/>
</linearGradient>
<linearGradient id="paint7_linear_31_126" x1="301.046" y1="351.738" x2="301.046" y2="396.742" gradientUnits="userSpaceOnUse">
<stop stop-color="#645DF8"/>
<stop offset="1" stop-color="#B3B1F2"/>
</linearGradient>
<linearGradient id="paint8_linear_31_126" x1="283.056" y1="317.348" x2="283.056" y2="396.738" gradientUnits="userSpaceOnUse">
<stop stop-color="#645DF8"/>
<stop offset="1" stop-color="#B3B1F2"/>
</linearGradient>
<linearGradient id="paint9_linear_31_126" x1="265.206" y1="341.645" x2="265.206" y2="396.736" gradientUnits="userSpaceOnUse">
<stop stop-color="#645DF8"/>
<stop offset="1" stop-color="#B3B1F2"/>
</linearGradient>
<linearGradient id="paint10_linear_31_126" x1="407.985" y1="317.348" x2="407.985" y2="396.738" gradientUnits="userSpaceOnUse">
<stop stop-color="#645DF8"/>
<stop offset="1" stop-color="#B3B1F2"/>
</linearGradient>
<linearGradient id="paint11_linear_31_126" x1="461.102" y1="309.496" x2="461.102" y2="396.738" gradientUnits="userSpaceOnUse">
<stop stop-color="#645DF8"/>
<stop offset="1" stop-color="#B3B1F2"/>
</linearGradient>
<linearGradient id="paint12_linear_31_126" x1="355.907" y1="471.373" x2="355.907" y2="527.099" gradientUnits="userSpaceOnUse">
<stop stop-color="#746EF9"/>
<stop offset="1" stop-color="white" stop-opacity="0.01"/>
</linearGradient>
<linearGradient id="paint13_linear_31_126" x1="504.914" y1="408.379" x2="504.914" y2="493.041" gradientUnits="userSpaceOnUse">
<stop stop-color="#645DF8"/>
<stop offset="1" stop-color="#B3B1F2"/>
</linearGradient>
<linearGradient id="paint14_linear_31_126" x1="414.1" y1="427.004" x2="414.1" y2="507.228" gradientUnits="userSpaceOnUse">
<stop stop-color="#645DF8"/>
<stop offset="1" stop-color="#B3B1F2"/>
</linearGradient>
<linearGradient id="paint15_linear_31_126" x1="293.057" y1="427.004" x2="293.057" y2="507.228" gradientUnits="userSpaceOnUse">
<stop stop-color="#645DF8"/>
<stop offset="1" stop-color="#B3B1F2"/>
</linearGradient>
<linearGradient id="paint16_linear_31_126" x1="343.727" y1="443.301" x2="343.727" y2="446.405" gradientUnits="userSpaceOnUse">
<stop stop-color="#645DF8"/>
<stop offset="1" stop-color="#B3B1F2"/>
</linearGradient>
<linearGradient id="paint17_linear_31_126" x1="343.727" y1="449.512" x2="343.727" y2="452.615" gradientUnits="userSpaceOnUse">
<stop stop-color="#645DF8"/>
<stop offset="1" stop-color="#B3B1F2"/>
</linearGradient>
<linearGradient id="paint18_linear_31_126" x1="343.727" y1="455.715" x2="343.727" y2="458.819" gradientUnits="userSpaceOnUse">
<stop stop-color="#645DF8"/>
<stop offset="1" stop-color="#B3B1F2"/>
</linearGradient>
</defs>
</svg>
