<svg width="828" height="845" viewBox="0 0 828 845" fill="none" xmlns="http://www.w3.org/2000/svg">
<g filter="url(#filter2_f_31_53)">
<path d="M426.826 303.342C418.772 298.886 408.993 298.886 400.939 303.342L313.796 351.549C305.283 356.258 300 365.219 300 374.947V469.415C300 479.143 305.283 488.104 313.796 492.813L400.939 541.021C408.993 545.476 418.772 545.476 426.826 541.021L513.969 492.813C522.481 488.104 527.765 479.143 527.765 469.415V374.947C527.765 365.219 522.481 356.258 513.969 351.549L426.826 303.342Z" fill="#DBDAFE"/>
</g>
<circle cx="413.882" cy="407.681" r="201" fill="#FAFAFD" stroke="#DBDAFE"/>
<circle cx="413.882" cy="407.681" r="281" fill="#F1F1FD" fill-opacity="0.14" stroke="#DBDAFE"/>
<circle cx="413.882" cy="407.681" r="133" fill="#F6F6FC" stroke="#DBDAFE"/>
<path d="M414.382 325.681C459.949 325.681 496.882 362.397 496.882 407.681C496.882 452.966 459.949 489.681 414.382 489.681C368.816 489.681 331.882 452.966 331.882 407.681C331.882 362.397 368.816 325.681 414.382 325.681Z" fill="#EBEBFD" fill-opacity="0.8" stroke="#DBDAFE"/>
<path d="M414.382 358.681C441.725 358.681 463.882 380.624 463.882 407.681C463.882 434.738 441.725 456.681 414.382 456.681C387.039 456.681 364.882 434.738 364.882 407.681C364.882 380.624 387.039 358.681 414.382 358.681Z" fill="#DBDAFE" stroke="#DBDAFE"/>
<g filter="url(#filter0_f_31_53)">
<mask id="path-6-outside-1_31_53" maskUnits="userSpaceOnUse" x="288.295" y="370.185" width="252.892" height="76.8353" fill="black">
<rect fill="white" x="288.295" y="370.185" width="252.892" height="76.8353"/>
<path d="M291.484 389.11C292.364 379.208 301.105 371.895 311.007 372.775L523.17 391.638C533.072 392.519 540.386 401.26 539.505 411.162L538 428.095C537.119 437.997 528.378 445.311 518.476 444.43L306.313 425.567C296.411 424.687 289.098 415.946 289.978 406.044L291.484 389.11Z"/>
</mask>
<path d="M291.484 389.11C292.413 378.658 301.639 370.938 312.092 371.868L522.262 390.554C532.715 391.483 540.434 400.71 539.505 411.162C540.337 401.81 532.984 393.515 523.081 392.635L310.918 373.771C301.016 372.891 292.315 379.758 291.484 389.11ZM538 428.095C537.07 438.547 527.844 446.267 517.392 445.338L307.221 426.652C296.769 425.722 289.049 416.496 289.978 406.044C289.147 415.396 296.5 423.691 306.402 424.571L518.565 443.434C528.467 444.315 537.168 437.447 538 428.095ZM538 428.095M288.384 423.973L293.078 371.181L288.384 423.973M288.384 423.973M541.099 393.233L536.406 446.024L541.099 393.233" fill="#FBFAFB" mask="url(#path-6-outside-1_31_53)"/>
</g>
<g filter="url(#filter1_ii_31_53)">
<rect x="293.078" y="371.181" width="249" height="53" rx="18" transform="rotate(5.08077 293.078 371.181)" fill="#746EF9"/>
</g>
<path d="M311.671 392.82L314.058 393.032L317.308 403.537L317.461 403.551L322.513 393.784L324.901 393.996L323.742 407.035L321.87 406.869L322.709 397.433L322.588 397.422L317.905 406.497L316.351 406.359L313.344 396.594L313.223 396.583L312.383 406.025L310.511 405.859L311.671 392.82ZM328.738 407.698C328.118 407.643 327.568 407.478 327.088 407.204C326.608 406.926 326.241 406.554 325.987 406.086C325.738 405.619 325.642 405.065 325.699 404.424C325.748 403.872 325.894 403.428 326.138 403.09C326.382 402.752 326.694 402.496 327.073 402.32C327.452 402.144 327.869 402.023 328.325 401.956C328.78 401.89 329.241 401.849 329.709 401.835C330.3 401.819 330.781 401.806 331.15 401.796C331.519 401.782 331.791 401.732 331.965 401.644C332.14 401.557 332.237 401.399 332.258 401.17L332.262 401.125C332.311 400.569 332.192 400.124 331.905 399.791C331.623 399.458 331.174 399.264 330.558 399.209C329.917 399.152 329.399 399.249 329.005 399.501C328.615 399.749 328.335 400.038 328.164 400.37L326.411 399.803C326.676 399.228 327.029 398.775 327.469 398.447C327.913 398.114 328.41 397.889 328.96 397.771C329.51 397.648 330.08 397.614 330.67 397.666C331.06 397.701 331.47 397.784 331.899 397.916C332.332 398.045 332.729 398.247 333.09 398.523C333.455 398.799 333.74 399.173 333.946 399.645C334.153 400.113 334.224 400.703 334.161 401.416L333.584 407.91L331.724 407.745L331.843 406.408L331.767 406.401C331.622 406.636 331.416 406.862 331.148 407.078C330.881 407.294 330.547 407.463 330.147 407.586C329.747 407.708 329.277 407.746 328.738 407.698ZM329.288 406.206C329.814 406.253 330.273 406.189 330.665 406.014C331.062 405.84 331.372 405.594 331.597 405.276C331.827 404.954 331.959 404.6 331.993 404.214L332.106 402.953C332.032 403.015 331.894 403.067 331.694 403.109C331.498 403.147 331.275 403.177 331.025 403.197C330.775 403.214 330.532 403.228 330.296 403.241C330.06 403.25 329.862 403.259 329.703 403.266C329.33 403.28 328.985 403.328 328.67 403.411C328.359 403.495 328.103 403.633 327.902 403.824C327.705 404.012 327.592 404.276 327.562 404.616C327.52 405.087 327.662 405.459 327.989 405.732C328.316 406 328.749 406.159 329.288 406.206ZM339.683 408.652C338.737 408.567 337.941 408.281 337.295 407.791C336.655 407.298 336.186 406.655 335.888 405.863C335.591 405.071 335.486 404.184 335.573 403.204C335.661 402.21 335.926 401.351 336.367 400.624C336.808 399.893 337.388 399.344 338.105 398.975C338.822 398.607 339.641 398.464 340.562 398.546C341.305 398.612 341.955 398.808 342.512 399.136C343.069 399.459 343.505 399.883 343.817 400.407C344.134 400.932 344.298 401.526 344.307 402.19L342.454 402.025C342.393 401.558 342.195 401.142 341.859 400.779C341.528 400.415 341.059 400.207 340.452 400.153C339.921 400.106 339.444 400.204 339.02 400.449C338.601 400.69 338.258 401.057 337.991 401.551C337.725 402.041 337.561 402.634 337.5 403.33C337.436 404.043 337.49 404.668 337.66 405.205C337.831 405.742 338.1 406.171 338.47 406.49C338.844 406.81 339.3 406.994 339.839 407.042C340.2 407.074 340.533 407.037 340.837 406.932C341.146 406.822 341.412 406.651 341.634 406.419C341.86 406.186 342.029 405.897 342.141 405.552L343.993 405.717C343.869 406.343 343.613 406.89 343.225 407.356C342.837 407.822 342.342 408.171 341.739 408.404C341.141 408.638 340.456 408.72 339.683 408.652ZM346.086 399.165L347.951 399.331L347.228 407.461L350.609 407.762L351.332 399.631L353.198 399.797L352.475 407.928L355.856 408.228L356.578 400.098L358.444 400.264L357.574 410.043L345.216 408.945L346.086 399.165ZM359.089 401.977L359.235 400.334L367.487 401.068L367.341 402.71L364.151 402.427L363.427 410.564L361.568 410.398L362.292 402.262L359.089 401.977ZM370.464 411.408C369.845 411.352 369.295 411.188 368.814 410.914C368.334 410.636 367.967 410.264 367.713 409.796C367.464 409.329 367.368 408.775 367.425 408.134C367.474 407.582 367.62 407.138 367.864 406.8C368.108 406.462 368.42 406.205 368.799 406.029C369.178 405.854 369.596 405.732 370.051 405.666C370.506 405.599 370.967 405.559 371.435 405.545C372.027 405.529 372.507 405.516 372.876 405.506C373.245 405.492 373.517 405.441 373.691 405.354C373.866 405.267 373.963 405.109 373.984 404.88L373.988 404.835C374.037 404.279 373.919 403.834 373.632 403.501C373.349 403.168 372.9 402.974 372.284 402.919C371.643 402.862 371.126 402.959 370.731 403.211C370.341 403.458 370.061 403.748 369.89 404.079L368.137 403.513C368.402 402.937 368.755 402.485 369.195 402.157C369.639 401.824 370.136 401.599 370.686 401.481C371.236 401.358 371.806 401.323 372.396 401.376C372.786 401.411 373.196 401.494 373.625 401.626C374.058 401.755 374.455 401.957 374.816 402.233C375.181 402.509 375.466 402.883 375.672 403.355C375.879 403.822 375.951 404.413 375.887 405.126L375.31 411.62L373.451 411.455L373.569 410.118L373.493 410.111C373.348 410.346 373.142 410.572 372.875 410.788C372.607 411.003 372.274 411.173 371.873 411.295C371.473 411.418 371.003 411.456 370.464 411.408ZM371.014 409.916C371.54 409.963 372 409.899 372.392 409.724C372.788 409.55 373.099 409.304 373.324 408.986C373.553 408.664 373.685 408.31 373.72 407.924L373.832 406.663C373.758 406.725 373.621 406.777 373.42 406.819C373.224 406.857 373.001 406.886 372.751 406.907C372.502 406.923 372.259 406.938 372.022 406.951C371.786 406.96 371.588 406.968 371.43 406.976C371.056 406.989 370.712 407.038 370.396 407.121C370.085 407.205 369.829 407.342 369.628 407.534C369.432 407.722 369.318 407.986 369.288 408.325C369.246 408.797 369.389 409.169 369.715 409.441C370.042 409.71 370.475 409.868 371.014 409.916ZM386.046 399.047L386.728 400.321C386.411 400.562 386.061 400.723 385.678 400.805C385.298 400.882 384.866 400.914 384.379 400.901C383.893 400.884 383.337 400.858 382.711 400.823C382.005 400.782 381.412 400.883 380.932 401.127C380.453 401.367 380.066 401.752 379.771 402.282C379.48 402.808 379.262 403.482 379.116 404.303L379.237 404.314C379.609 403.735 380.091 403.32 380.683 403.069C381.278 402.818 381.93 402.724 382.639 402.787C383.429 402.857 384.115 403.1 384.699 403.516C385.282 403.931 385.719 404.503 386.009 405.23C386.304 405.954 386.407 406.816 386.318 407.818C386.228 408.833 385.963 409.692 385.524 410.398C385.089 411.104 384.516 411.628 383.806 411.971C383.099 412.311 382.29 412.44 381.378 412.359C380.465 412.277 379.687 412.001 379.045 411.529C378.407 411.053 377.937 410.391 377.636 409.543C377.34 408.695 377.244 407.672 377.351 406.475L377.437 405.508C377.636 403.271 378.184 401.623 379.083 400.565C379.981 399.507 381.225 399.034 382.815 399.145C383.33 399.178 383.789 399.217 384.191 399.261C384.594 399.301 384.948 399.313 385.253 399.298C385.563 399.278 385.827 399.195 386.046 399.047ZM381.526 410.761C382.057 410.808 382.525 410.715 382.931 410.482C383.341 410.244 383.672 409.887 383.924 409.408C384.176 408.93 384.333 408.354 384.393 407.679C384.451 407.017 384.397 406.445 384.231 405.964C384.064 405.483 383.798 405.104 383.433 404.828C383.069 404.547 382.617 404.383 382.078 404.335C381.679 404.3 381.316 404.338 380.99 404.45C380.664 404.558 380.376 404.736 380.127 404.983C379.883 405.231 379.682 405.542 379.524 405.918C379.372 406.289 379.269 406.723 379.216 407.219C379.126 408.229 379.286 409.054 379.696 409.694C380.109 410.334 380.719 410.689 381.526 410.761ZM389.588 410.201L394.531 403.472L396.581 403.654L395.711 413.434L393.846 413.268L394.479 406.15L389.554 412.887L387.485 412.703L388.355 402.923L390.22 403.089L389.588 410.201ZM397.407 417.281L398.602 403.834L400.461 404L400.321 405.585L400.48 405.599C400.608 405.405 400.788 405.184 401.02 404.935C401.252 404.686 401.561 404.478 401.948 404.311C402.336 404.14 402.833 404.082 403.44 404.136C404.229 404.206 404.916 404.468 405.5 404.922C406.085 405.376 406.52 405.995 406.805 406.777C407.095 407.56 407.193 408.48 407.099 409.537C407.005 410.594 406.748 411.485 406.329 412.209C405.909 412.929 405.374 413.465 404.722 413.818C404.071 414.167 403.351 414.306 402.561 414.236C401.967 414.183 401.49 414.04 401.13 413.807C400.774 413.574 400.502 413.315 400.313 413.028C400.125 412.742 399.983 412.49 399.886 412.272L399.772 412.261L399.311 417.45L397.407 417.281ZM400.033 408.89C399.972 409.577 400.018 410.189 400.172 410.725C400.325 411.26 400.578 411.691 400.929 412.018C401.281 412.34 401.731 412.525 402.279 412.574C402.848 412.625 403.336 412.516 403.745 412.249C404.154 411.977 404.48 411.589 404.722 411.084C404.967 410.58 405.119 410.001 405.178 409.347C405.235 408.702 405.189 408.114 405.039 407.583C404.894 407.052 404.641 406.621 404.281 406.29C403.926 405.959 403.462 405.768 402.889 405.717C402.337 405.668 401.857 405.769 401.45 406.019C401.047 406.27 400.725 406.641 400.484 407.133C400.244 407.625 400.093 408.211 400.033 408.89ZM412.363 415.113C411.446 415.032 410.664 414.751 410.018 414.27C409.372 413.789 408.894 413.154 408.583 412.365C408.273 411.575 408.162 410.676 408.252 409.666C408.342 408.651 408.61 407.781 409.055 407.055C409.501 406.328 410.084 405.786 410.805 405.426C411.525 405.067 412.344 404.928 413.261 405.009C414.178 405.091 414.959 405.372 415.605 405.853C416.251 406.334 416.729 406.971 417.04 407.764C417.35 408.558 417.46 409.462 417.37 410.476C417.28 411.486 417.012 412.352 416.567 413.074C416.123 413.796 415.54 414.337 414.819 414.697C414.098 415.056 413.279 415.195 412.363 415.113ZM412.511 413.516C413.105 413.569 413.612 413.455 414.03 413.176C414.448 412.897 414.774 412.504 415.007 411.999C415.245 411.494 415.392 410.927 415.447 410.299C415.503 409.675 415.458 409.093 415.314 408.554C415.174 408.011 414.923 407.563 414.56 407.21C414.198 406.857 413.72 406.654 413.126 406.601C412.527 406.548 412.017 406.663 411.593 406.947C411.175 407.23 410.846 407.627 410.609 408.136C410.375 408.641 410.231 409.206 410.176 409.83C410.12 410.458 410.162 411.042 410.302 411.58C410.447 412.12 410.7 412.563 411.063 412.912C411.43 413.262 411.913 413.463 412.511 413.516ZM418.526 415.463L419.395 405.683L423.451 406.043C424.555 406.142 425.408 406.455 426.011 406.983C426.615 407.508 426.881 408.171 426.81 408.973C426.759 409.546 426.536 409.984 426.141 410.287C425.746 410.59 425.243 410.772 424.63 410.833C425.062 410.923 425.452 411.09 425.798 411.335C426.144 411.575 426.412 411.881 426.602 412.253C426.795 412.625 426.871 413.056 426.827 413.544C426.781 414.062 426.607 414.508 426.304 414.883C426.001 415.254 425.585 415.53 425.056 415.709C424.531 415.885 423.912 415.941 423.199 415.878L418.526 415.463ZM420.457 414.03L423.341 414.286C423.812 414.328 424.191 414.249 424.479 414.047C424.766 413.846 424.927 413.552 424.961 413.166C425.002 412.712 424.9 412.344 424.655 412.061C424.411 411.774 424.054 411.609 423.582 411.568L420.698 411.311L420.457 414.03ZM420.822 409.917L423.108 410.12C423.465 410.152 423.775 410.128 424.038 410.049C424.306 409.97 424.517 409.843 424.669 409.668C424.826 409.49 424.916 409.271 424.939 409.012C424.973 408.634 424.844 408.326 424.553 408.086C424.262 407.846 423.847 407.702 423.308 407.654L421.041 407.453L420.822 409.917ZM430.97 416.787C430.35 416.732 429.8 416.568 429.32 416.294C428.84 416.016 428.473 415.643 428.219 415.176C427.97 414.709 427.874 414.155 427.931 413.514C427.98 412.962 428.126 412.517 428.37 412.179C428.614 411.842 428.926 411.585 429.305 411.409C429.684 411.233 430.101 411.112 430.556 411.045C431.012 410.979 431.473 410.939 431.94 410.925C432.532 410.909 433.013 410.896 433.381 410.886C433.751 410.872 434.022 410.821 434.197 410.734C434.372 410.647 434.469 410.488 434.49 410.259L434.494 410.215C434.543 409.659 434.424 409.214 434.137 408.88C433.855 408.547 433.406 408.353 432.79 408.298C432.149 408.241 431.631 408.339 431.237 408.59C430.847 408.838 430.567 409.128 430.396 409.459L428.643 408.892C428.908 408.317 429.261 407.865 429.701 407.536C430.145 407.203 430.642 406.978 431.192 406.86C431.742 406.738 432.312 406.703 432.902 406.755C433.292 406.79 433.702 406.874 434.131 407.006C434.564 407.134 434.961 407.336 435.322 407.612C435.686 407.889 435.972 408.263 436.178 408.734C436.385 409.202 436.456 409.792 436.393 410.505L435.815 417L433.956 416.834L434.075 415.497L433.999 415.491C433.854 415.726 433.648 415.951 433.38 416.167C433.113 416.383 432.779 416.552 432.379 416.675C431.979 416.798 431.509 416.835 430.97 416.787ZM431.52 415.296C432.046 415.343 432.505 415.279 432.897 415.104C433.294 414.929 433.604 414.683 433.829 414.365C434.059 414.043 434.191 413.689 434.225 413.303L434.337 412.043C434.263 412.104 434.126 412.156 433.926 412.198C433.73 412.237 433.507 412.266 433.257 412.287C433.007 412.303 432.764 412.318 432.528 412.331C432.292 412.34 432.094 412.348 431.935 412.355C431.562 412.369 431.217 412.418 430.902 412.501C430.591 412.584 430.335 412.722 430.134 412.914C429.937 413.102 429.824 413.365 429.794 413.705C429.752 414.176 429.894 414.548 430.221 414.821C430.548 415.09 430.981 415.248 431.52 415.296ZM437.324 408.933L437.47 407.29L445.721 408.024L445.575 409.666L442.385 409.383L441.662 417.52L439.803 417.354L440.526 409.217L437.324 408.933ZM448.331 411.644L451.17 411.896C452.367 412.003 453.262 412.382 453.854 413.033C454.447 413.685 454.701 414.48 454.618 415.418C454.563 416.029 454.37 416.566 454.038 417.028C453.706 417.491 453.249 417.84 452.668 418.075C452.087 418.305 451.398 418.385 450.6 418.314L446.327 417.934L447.197 408.155L449.063 408.321L448.339 416.458L450.746 416.671C451.293 416.72 451.756 416.618 452.133 416.365C452.511 416.108 452.72 415.756 452.76 415.31C452.802 414.839 452.66 414.439 452.334 414.111C452.008 413.778 451.572 413.588 451.024 413.539L448.185 413.286L448.331 411.644ZM460.134 419.162L461.004 409.382L468.982 410.092L468.112 419.871L466.247 419.705L466.97 411.568L462.711 411.19L461.987 419.327L460.134 419.162ZM469.793 423.717L470.989 410.27L472.848 410.435L472.707 412.021L472.866 412.035C472.995 411.841 473.175 411.62 473.407 411.371C473.638 411.122 473.948 410.914 474.335 410.747C474.722 410.576 475.219 410.518 475.826 410.572C476.616 410.642 477.303 410.904 477.887 411.358C478.471 411.812 478.906 412.431 479.192 413.213C479.481 413.996 479.579 414.916 479.485 415.973C479.391 417.03 479.135 417.921 478.715 418.645C478.296 419.365 477.761 419.901 477.109 420.254C476.458 420.602 475.737 420.742 474.948 420.671C474.354 420.619 473.876 420.476 473.516 420.243C473.161 420.01 472.888 419.75 472.7 419.464C472.512 419.178 472.369 418.926 472.273 418.707L472.159 418.697L471.697 423.886L469.793 423.717ZM472.42 415.326C472.359 416.013 472.405 416.625 472.558 417.161C472.712 417.696 472.964 418.127 473.316 418.454C473.668 418.776 474.118 418.961 474.666 419.01C475.234 419.061 475.723 418.952 476.132 418.685C476.541 418.413 476.867 418.025 477.108 417.52C477.354 417.016 477.506 416.437 477.564 415.783C477.622 415.138 477.575 414.55 477.426 414.019C477.281 413.488 477.028 413.057 476.668 412.726C476.313 412.395 475.848 412.204 475.275 412.153C474.723 412.104 474.244 412.204 473.837 412.455C473.433 412.706 473.112 413.077 472.871 413.569C472.631 414.061 472.48 414.647 472.42 415.326ZM484.749 421.549C483.832 421.468 483.051 421.187 482.405 420.706C481.759 420.225 481.281 419.59 480.97 418.8C480.659 418.011 480.549 417.112 480.639 416.101C480.729 415.087 480.997 414.217 481.442 413.49C481.887 412.764 482.47 412.221 483.191 411.862C483.912 411.502 484.731 411.363 485.648 411.445C486.564 411.527 487.346 411.808 487.992 412.289C488.638 412.77 489.116 413.407 489.426 414.2C489.736 414.994 489.846 415.898 489.756 416.912C489.666 417.922 489.399 418.788 488.954 419.51C488.509 420.232 487.926 420.773 487.206 421.132C486.485 421.492 485.666 421.631 484.749 421.549ZM484.898 419.952C485.492 420.005 485.998 419.891 486.417 419.612C486.835 419.333 487.161 418.94 487.394 418.435C487.632 417.93 487.778 417.363 487.834 416.735C487.889 416.111 487.845 415.529 487.7 414.99C487.56 414.447 487.309 413.999 486.947 413.646C486.585 413.293 486.107 413.09 485.512 413.037C484.914 412.984 484.403 413.099 483.98 413.382C483.561 413.666 483.233 414.062 482.995 414.572C482.762 415.077 482.618 415.642 482.562 416.266C482.506 416.894 482.549 417.478 482.689 418.016C482.834 418.555 483.087 418.999 483.45 419.348C483.817 419.697 484.299 419.899 484.898 419.952ZM495.11 422.47C494.146 422.385 493.335 422.105 492.675 421.632C492.02 421.154 491.538 420.523 491.227 419.738C490.92 418.949 490.812 418.048 490.902 417.033C490.991 416.031 491.257 415.165 491.698 414.434C492.144 413.704 492.723 413.154 493.436 412.786C494.153 412.417 494.966 412.274 495.875 412.354C496.426 412.403 496.953 412.542 497.455 412.771C497.956 412.999 498.396 413.327 498.773 413.754C499.15 414.181 499.429 414.717 499.611 415.363C499.794 416.003 499.846 416.767 499.767 417.654L499.707 418.329L491.933 417.638L492.06 416.212L497.968 416.737C498.013 416.236 497.95 415.784 497.781 415.379C497.612 414.971 497.353 414.638 497.004 414.38C496.659 414.122 496.24 413.972 495.747 413.928C495.213 413.88 494.734 413.971 494.312 414.198C493.894 414.422 493.558 414.734 493.304 415.135C493.055 415.533 492.909 415.975 492.865 416.463L492.766 417.577C492.708 418.231 492.773 418.797 492.962 419.276C493.154 419.755 493.448 420.134 493.843 420.413C494.237 420.688 494.713 420.85 495.269 420.9C495.63 420.932 495.963 420.91 496.269 420.834C496.576 420.755 496.847 420.621 497.082 420.432C497.317 420.243 497.505 420.001 497.647 419.706L499.42 420.19C499.228 420.708 498.928 421.15 498.519 421.516C498.115 421.878 497.622 422.144 497.043 422.315C496.467 422.482 495.823 422.534 495.11 422.47ZM500.898 422.786L501.767 413.007L503.671 413.176L503.306 417.276L504.223 417.358L507.816 413.544L510.171 413.754L505.96 418.173L509.347 423.537L506.984 423.327L504.384 419.156L503.149 419.046L502.801 422.955L500.898 422.786ZM510.463 415.435L510.609 413.793L518.861 414.526L518.715 416.169L515.525 415.885L514.802 424.022L512.942 423.857L513.666 415.72L510.463 415.435Z" fill="#FBFAFB"/>
<path d="M468.641 433.988C468.463 431.858 470.82 430.817 472.345 431.836L472.641 432.034C477.209 435.086 481.486 438.53 485.418 442.326C486.249 443.128 486.309 444.22 485.881 445.047C485.469 445.841 484.581 446.435 483.522 446.322L478.257 445.758C478.136 445.745 478.06 445.813 478.04 445.856L475.911 450.553C475.023 452.512 472.085 452.365 471.492 450.211C470.061 445.012 469.117 439.699 468.67 434.336L468.641 433.988Z" fill="#746EF9" stroke="#FBFAFB" stroke-width="2"/>
<defs>
<filter id="filter0_f_31_53" x="286.384" y="369.181" width="256.715" height="78.8433" filterUnits="userSpaceOnUse" color-interpolation-filters="sRGB">
<feFlood flood-opacity="0" result="BackgroundImageFix"/>
<feBlend mode="normal" in="SourceGraphic" in2="BackgroundImageFix" result="shape"/>
<feGaussianBlur stdDeviation="1" result="effect1_foregroundBlur_31_53"/>
</filter>
<filter id="filter1_ii_31_53" x="289.906" y="370.703" width="249.671" height="75.7988" filterUnits="userSpaceOnUse" color-interpolation-filters="sRGB">
<feFlood flood-opacity="0" result="BackgroundImageFix"/>
<feBlend mode="normal" in="SourceGraphic" in2="BackgroundImageFix" result="shape"/>
<feColorMatrix in="SourceAlpha" type="matrix" values="0 0 0 0 0 0 0 0 0 0 0 0 0 0 0 0 0 0 127 0" result="hardAlpha"/>
<feOffset dy="2"/>
<feGaussianBlur stdDeviation="1.8"/>
<feComposite in2="hardAlpha" operator="arithmetic" k2="-1" k3="1"/>
<feColorMatrix type="matrix" values="0 0 0 0 1 0 0 0 0 1 0 0 0 0 1 0 0 0 0.5 0"/>
<feBlend mode="normal" in2="shape" result="effect1_innerShadow_31_53"/>
<feColorMatrix in="SourceAlpha" type="matrix" values="0 0 0 0 0 0 0 0 0 0 0 0 0 0 0 0 0 0 127 0" result="hardAlpha"/>
<feOffset dy="-2"/>
<feGaussianBlur stdDeviation="2"/>
<feComposite in2="hardAlpha" operator="arithmetic" k2="-1" k3="1"/>
<feColorMatrix type="matrix" values="0 0 0 0 1 0 0 0 0 1 0 0 0 0 1 0 0 0 0.5 0"/>
<feBlend mode="normal" in2="effect1_innerShadow_31_53" result="effect2_innerShadow_31_53"/>
</filter>
<filter id="filter2_f_31_53" x="0" y="0" width="827.765" height="844.362" filterUnits="userSpaceOnUse" color-interpolation-filters="sRGB">
<feFlood flood-opacity="0" result="BackgroundImageFix"/>
<feBlend mode="normal" in="SourceGraphic" in2="BackgroundImageFix" result="shape"/>
<feGaussianBlur stdDeviation="150" result="effect1_foregroundBlur_31_53"/>
</filter>
</defs>
</svg>
