<svg width="24" height="24" viewBox="0 0 24 24" fill="none" xmlns="http://www.w3.org/2000/svg">
<path d="M12.0156 2C6.49263 2 2.01562 6.477 2.01562 12C2.01562 13.272 2.27762 14.561 2.73462 15.719L3.51562 17.312C4.01063 18.341 2.82296 19.343 2.15796 20.532C1.79096 21.19 2.24895 21.983 3.00195 22.001C4.01895 22.024 6.65963 21.574 7.95363 21.094C9.14663 21.645 10.6836 22 12.0156 22C17.5386 22 22.0156 17.523 22.0156 12C22.0156 6.477 17.5386 2 12.0156 2ZM8.01562 11C8.56763 11 9.01562 11.448 9.01562 12C9.01562 12.552 8.56763 13 8.01562 13C7.46362 13 7.01562 12.552 7.01562 12C7.01562 11.448 7.46362 11 8.01562 11ZM12.0156 11C12.5676 11 13.0156 11.448 13.0156 12C13.0156 12.552 12.5676 13 12.0156 13C11.4636 13 11.0156 12.552 11.0156 12C11.0156 11.448 11.4636 11 12.0156 11ZM16.0156 11C16.5676 11 17.0156 11.448 17.0156 12C17.0156 12.552 16.5676 13 16.0156 13C15.4636 13 15.0156 12.552 15.0156 12C15.0156 11.448 15.4636 11 16.0156 11Z" fill="#FBFAFB"/>
</svg>
