<svg width="42" height="42" viewBox="0 0 42 42" fill="none" xmlns="http://www.w3.org/2000/svg">
<rect width="42" height="42" rx="9" fill="#656565" fill-opacity="0.7"/>
<path d="M10.8287 20.2097C10.878 20.1849 10.9274 20.1613 10.9754 20.139C11.8112 19.7492 12.658 19.3843 13.5036 19.0194C13.5493 19.0194 13.6257 18.966 13.6688 18.9486C13.7341 18.9201 13.7995 18.8928 13.8648 18.8642C13.9905 18.8096 14.1163 18.7562 14.2408 18.7016C14.4922 18.5936 14.7425 18.4856 14.9939 18.3776C15.4956 18.1617 15.9973 17.9457 16.499 17.7285C17.5024 17.2965 18.5071 16.8633 19.5104 16.4313C20.5138 15.9994 21.5185 15.5662 22.5219 15.1342C23.5252 14.7023 24.5299 14.2691 25.5333 13.8371C26.5366 13.4051 27.5413 12.9719 28.5447 12.54C28.7678 12.4431 29.0094 12.2992 29.2485 12.257C29.4495 12.221 29.6454 12.1515 29.8476 12.113C30.231 12.0397 30.6538 12.0099 31.0211 12.1701C31.1481 12.2259 31.2652 12.3041 31.3626 12.4022C31.8285 12.8664 31.7632 13.6286 31.6646 14.2815C30.978 18.8319 30.2914 23.3836 29.6035 27.9341C29.5098 28.5585 29.3816 29.2437 28.8923 29.6384C28.4781 29.9723 27.8889 30.0095 27.3773 29.868C26.8658 29.7253 26.4146 29.4261 25.9721 29.132C24.1366 27.9081 22.3 26.6842 20.4645 25.4603C20.0282 25.1698 19.5425 24.79 19.5474 24.2625C19.5499 23.9447 19.7385 23.6617 19.9308 23.4097C21.5259 21.3145 23.8272 19.8746 25.5394 17.8762C25.781 17.5944 25.9709 17.0855 25.6393 16.9229C25.442 16.8261 25.2152 16.9576 25.0353 17.083C22.7721 18.6656 20.5101 20.2495 18.247 21.8321C17.5086 22.3484 16.7345 22.8797 15.8445 23.0063C15.0482 23.1205 14.247 22.8971 13.4765 22.6687C12.8306 22.4775 12.1859 22.2814 11.5437 22.0791C11.2022 21.9723 10.8497 21.8569 10.5859 21.6149C10.3221 21.3728 10.1705 20.9657 10.3295 20.6429C10.4294 20.4406 10.6229 20.3128 10.8263 20.2085L10.8287 20.2097Z" fill="#FBFAFB"/>
</svg>
