<svg width="42" height="42" viewBox="0 0 42 42" fill="none" xmlns="http://www.w3.org/2000/svg">
<rect width="42" height="42" rx="9" fill="#656565" fill-opacity="0.7"/>
<path d="M24.2147 25.8174C19.9964 25.8174 16.5644 22.3843 16.5632 18.1659C16.5644 17.0966 17.4351 16.2271 18.5021 16.2271C18.6118 16.2271 18.7203 16.2363 18.8243 16.2548C19.0529 16.2929 19.27 16.3702 19.4698 16.4869C19.4987 16.5042 19.5183 16.5319 19.5229 16.5642L19.9686 19.3738C19.9744 19.4073 19.964 19.4396 19.9421 19.4639C19.6961 19.7364 19.382 19.9327 19.0321 20.0308L18.8635 20.0782L18.927 20.241C19.5021 21.7053 20.6731 22.8751 22.1385 23.4524L22.3013 23.5171L22.3486 23.3485C22.4468 22.9986 22.6431 22.6845 22.9156 22.4385C22.9352 22.4201 22.9618 22.4108 22.9884 22.4108C22.9941 22.4108 22.9999 22.4108 23.0068 22.412L25.8164 22.8577C25.8499 22.8635 25.8776 22.882 25.8949 22.9108C26.0104 23.1106 26.0878 23.3289 26.127 23.5575C26.1455 23.6591 26.1536 23.7665 26.1536 23.8785C26.1536 24.9467 25.284 25.8162 24.2147 25.8174Z" fill="#FBFAFB"/>
<path d="M31.6948 20.0738C31.4673 17.5033 30.2895 15.1186 28.3783 13.3599C26.4556 11.5908 23.9613 10.6162 21.3527 10.6162C15.6274 10.6162 10.9691 15.2746 10.9691 20.9999C10.9691 22.9214 11.4991 24.7933 12.5026 26.4238L10.2646 31.3778L17.43 30.6145C18.676 31.1249 19.9947 31.3836 21.3516 31.3836C21.7084 31.3836 22.0745 31.3651 22.4417 31.327C22.765 31.2923 23.0918 31.2415 23.4128 31.1768C28.2074 30.208 31.7075 25.9527 31.7352 21.0553V20.9999C31.7352 20.6881 31.7214 20.3763 31.6937 20.0749L31.6948 20.0738ZM17.706 28.4401L13.7417 28.8627L14.9253 26.2402L14.6886 25.9227C14.6712 25.8996 14.6539 25.8765 14.6343 25.8499C13.6066 24.4307 13.0638 22.754 13.0638 21.0011C13.0638 16.4305 16.7822 12.7121 21.3527 12.7121C25.6346 12.7121 29.264 16.0529 29.6139 20.3174C29.6324 20.5461 29.6428 20.7759 29.6428 21.0022C29.6428 21.0669 29.6416 21.1304 29.6405 21.1985C29.5527 25.0219 26.8818 28.2691 23.1449 29.096C22.8597 29.1595 22.5675 29.208 22.2765 29.2391C21.974 29.2738 21.6634 29.2911 21.355 29.2911C20.2569 29.2911 19.1898 29.0786 18.1817 28.6583C18.0697 28.6133 17.96 28.5648 17.8572 28.5151L17.7071 28.4424L17.706 28.4401Z" fill="#FBFAFB"/>
</svg>
