<svg width="22" height="22" viewBox="0 0 22 22" fill="none" xmlns="http://www.w3.org/2000/svg">
<path d="M5.42969 9.83123C5.42969 7.62742 5.42969 6.52552 6.11432 5.84088C6.79896 5.15625 7.90086 5.15625 10.1047 5.15625H12.4422C14.646 5.15625 15.7479 5.15625 16.4325 5.84088C17.1171 6.52552 17.1171 7.62742 17.1171 9.83123V12.1687C17.1171 14.3725 17.1171 15.4744 16.4325 16.1591C15.7479 16.8437 14.646 16.8437 12.4422 16.8437H10.1047C7.90086 16.8437 6.79896 16.8437 6.11432 16.1591C5.42969 15.4744 5.42969 14.3725 5.42969 12.1687V9.83123Z" stroke="#646464" stroke-width="1.54688"/>
<rect x="8.9375" y="8.66406" width="4.67498" height="4.67498" rx="1.2375" fill="#646464" stroke="#646464" stroke-width="0.61875"/>
<path d="M8.9375 5.15467V1.64844" stroke="#646464" stroke-width="1.54688" stroke-linecap="round"/>
<path d="M13.6133 5.15467V1.64844" stroke="#646464" stroke-width="1.54688" stroke-linecap="round"/>
<path d="M17.1188 8.66406L20.625 8.66406" stroke="#646464" stroke-width="1.54688" stroke-linecap="round"/>
<path d="M17.1188 13.3359L20.625 13.3359" stroke="#646464" stroke-width="1.54688" stroke-linecap="round"/>
<path d="M8.9375 20.35V16.8438" stroke="#646464" stroke-width="1.54688" stroke-linecap="round"/>
<path d="M13.6133 20.35V16.8438" stroke="#646464" stroke-width="1.54688" stroke-linecap="round"/>
<path d="M1.92345 8.66406L5.42969 8.66406" stroke="#646464" stroke-width="1.54688" stroke-linecap="round"/>
<path d="M1.92345 13.3437L5.42969 13.3438" stroke="#646464" stroke-width="1.54688" stroke-linecap="round"/>
</svg>
