<svg width="22" height="22" viewBox="0 0 22 22" fill="none" xmlns="http://www.w3.org/2000/svg">
<path d="M6.35938 18.2188V13.5781C6.35938 13.0086 6.82108 12.5469 7.39062 12.5469H14.6094C15.1789 12.5469 15.6406 13.0086 15.6406 13.5781V18.7344M15.6406 3.78125V5.84375C15.6406 6.41329 15.1789 6.875 14.6094 6.875L7.39062 6.875C6.82108 6.875 6.35937 6.41329 6.35938 5.84375L6.35938 2.75M18.7322 6.3572L15.6428 3.2678C15.3113 2.93626 14.8616 2.75 14.3927 2.75H4.51786C3.54148 2.75 2.75 3.54148 2.75 4.51786V17.4821C2.75 18.4585 3.54148 19.25 4.51786 19.25H17.4821C18.4585 19.25 19.25 18.4585 19.25 17.4821V7.60726C19.25 7.1384 19.0637 6.68874 18.7322 6.3572Z" stroke="#646464" stroke-width="1.54688" stroke-linecap="round"/>
</svg>
