<svg width="11" height="11" viewBox="0 0 11 11" fill="none" xmlns="http://www.w3.org/2000/svg">
<path d="M4.9224 0.902148C5.12081 0.365951 5.87919 0.36595 6.0776 0.902147L7.06516 3.57097C7.12754 3.73955 7.26045 3.87246 7.42903 3.93484L10.0979 4.9224C10.634 5.12081 10.6341 5.87919 10.0979 6.0776L7.42903 7.06516C7.26045 7.12754 7.12754 7.26045 7.06516 7.42903L6.07761 10.0979C5.87919 10.634 5.12081 10.6341 4.9224 10.0979L3.93484 7.42903C3.87246 7.26045 3.73955 7.12754 3.57097 7.06516L0.902148 6.07761C0.365951 5.87919 0.36595 5.12081 0.902147 4.9224L3.57097 3.93484C3.73955 3.87246 3.87246 3.73955 3.93484 3.57097L4.9224 0.902148Z" fill="#746EF9" stroke="#746EF9" stroke-linejoin="round"/>
</svg>
